<?xml version="1.0" encoding="UTF-8" standalone="no" ?>
<!DOCTYPE svg PUBLIC "-//W3C//DTD SVG 1.1//EN" "http://www.w3.org/Graphics/SVG/1.1/DTD/svg11.dtd">
<svg xmlns="http://www.w3.org/2000/svg" xmlns:xlink="http://www.w3.org/1999/xlink" version="1.1" width="80" height="80" viewBox="0 0 80 80" xml:space="preserve">
<desc>Created with Fabric.js 4.6.0</desc>
<defs>
</defs>
<g transform="matrix(1 0 0 1 40 38.12)" id="ThCSkHWStpIbOuoq4JizT"  >
<g style=""   >
		<g transform="matrix(0.68 0 0 0.68 -8.86 -8.95)" id="yGQQ8mI21YDmKWheaLxwJ"  >
<path style="stroke: rgb(255,255,255); stroke-width: 6; stroke-dasharray: none; stroke-linecap: butt; stroke-dashoffset: 0; stroke-linejoin: miter; stroke-miterlimit: 4; fill: none; fill-rule: nonzero; opacity: 1;"  transform=" translate(0, 0)" d="M 0 -34.13333 C 18.8416 -34.13333 34.13333 -18.8416 34.13333 0 C 34.13333 18.8416 18.8416 34.13333 0 34.13333 C -18.8416 34.13333 -34.13333 18.8416 -34.13333 0 C -34.13333 -18.8416 -18.8416 -34.13333 0 -34.13333 z" stroke-linecap="round" />
</g>
		<g transform="matrix(0.22 0.25 -0.1 0.09 20.03 19.42)" id="3j_FtysmE9ayismJKqfQF"  >
<path style="stroke: rgb(255,255,255); stroke-width: 0; stroke-dasharray: none; stroke-linecap: butt; stroke-dashoffset: 0; stroke-linejoin: miter; stroke-miterlimit: 4; fill: rgb(255,255,255); fill-rule: nonzero; opacity: 1;"  transform=" translate(0, 0)" d="M -47.40741 -47.40741 L 35.88436 -47.40741 L 35.88436 -47.40741 C 42.24836 -47.40741 47.4074 -34.058589999999995 47.4074 -17.59199 L 47.4074 27.876520000000003 L 47.4074 27.876520000000003 C 47.4074 38.66313 44.02792 47.4074 39.859120000000004 47.4074 L -47.40741 47.4074 z" stroke-linecap="round" />
</g>
</g>
</g>
</svg>