<?xml version="1.0" encoding="UTF-8" standalone="no" ?>
<!DOCTYPE svg PUBLIC "-//W3C//DTD SVG 1.1//EN" "http://www.w3.org/Graphics/SVG/1.1/DTD/svg11.dtd">
<svg xmlns="http://www.w3.org/2000/svg" xmlns:xlink="http://www.w3.org/1999/xlink" version="1.1" width="440" height="200" viewBox="0 0 440 200" xml:space="preserve">
<desc>Created with Fabric.js 4.6.0</desc>
<defs>
</defs>
<g transform="matrix(1 0 0 1 220 103.63)" id="VUnJJj6oL4uy1GUTEqkjc"  >
<g style=""    >
		<g transform="matrix(1.43 0 0 1.6 0 88)" id="XpNHTFEZlOX7ssfi22qrY"  >
<path style="stroke: rgb(240,100,73); stroke-width: 3; stroke-dasharray: none; stroke-linecap: round; stroke-dashoffset: 0; stroke-linejoin: round; stroke-miterlimit: 10; fill: none; fill-rule: nonzero; opacity: 1;"   transform=" translate(-314.52, -337.42)" d="M 163.23183670295498 337.4153514774495 Q 163.23483670295496 337.4183514774495 166.22083981337488 337.9160186625195 Q 169.2068429237948 338.4136858475895 172.1928460342147 338.91135303265946 Q 175.17884914463463 339.40902021772945 178.16485225505454 339.90668740279943 Q 181.15085536547446 340.4043545878694 190.60653188180413 340.4043545878694 Q 200.0622083981338 340.4043545878694 202.55054432348373 340.4043545878694 Q 205.03888024883366 340.4043545878694 214.49455676516337 339.90668740279943 Q 223.95023328149307 339.40902021772945 227.93157076205296 339.40902021772945 Q 231.91290824261284 339.40902021772945 236.3919129082427 338.91135303265946 Q 240.87091757387253 338.4136858475895 247.34059097978235 338.4136858475895 Q 253.81026438569216 338.4136858475895 257.791601866252 337.9160186625195 Q 261.7729393468119 337.4183514774495 269.73561430793166 337.4183514774495 Q 277.6982892690514 337.4183514774495 281.1819595645413 336.9206842923795 Q 284.6656298600312 336.42301710730953 293.1259720062209 335.92534992223955 Q 301.58631415241064 335.42768273716956 306.0653188180405 335.42768273716956 Q 310.5443234836704 335.42768273716956 314.52566096423027 334.9300155520996 Q 318.5069984447901 334.4323483670296 324.47900466562993 334.4323483670296 Q 330.45101088646976 334.4323483670296 334.9300155520996 334.4323483670296 Q 339.40902021772945 334.4323483670296 345.3810264385693 334.4323483670296 Q 351.3530326594091 334.4323483670296 353.34370139968905 334.4323483670296 Q 355.33437013996894 334.4323483670296 358.81804043545884 334.4323483670296 Q 362.30171073094874 334.4323483670296 365.78538102643864 334.4323483670296 Q 369.26905132192854 334.4323483670296 373.2503888024884 334.4323483670296 Q 377.23172628304826 334.4323483670296 381.21306376360815 334.4323483670296 Q 385.19440124416803 334.4323483670296 388.18040435458795 334.9300155520996 Q 391.16640746500786 335.42768273716956 394.1524105754278 335.42768273716956 Q 397.13841368584764 335.42768273716956 403.60808709175745 335.42768273716956 Q 410.07776049766727 335.42768273716956 413.06376360808713 335.42768273716956 Q 416.04976671850704 335.42768273716956 418.538102643857 335.42768273716956 Q 421.0264385692069 335.42768273716956 423.51477449455683 335.42768273716956 Q 426.00311041990676 335.42768273716956 428.4914463452567 335.42768273716956 Q 430.9797822706066 335.42768273716956 434.4634525660965 334.9300155520996 Q 437.94712286158637 334.4323483670296 440.4354587869363 334.4323483670296 Q 442.9237947122862 334.4323483670296 444.91446345256617 334.4323483670296 Q 446.9051321928461 334.4323483670296 449.891135303266 334.4323483670296 Q 452.87713841368594 334.4323483670296 455.86314152410586 334.4323483670296 Q 458.84914463452577 334.4323483670296 460.83981337480566 334.4323483670296 Q 462.83048211508554 334.4323483670296 463.8258164852255 334.4323483670296 Q 464.8211508553655 334.4323483670296 465.3188180404355 334.4323483670296 L 465.81648522550546 334.4323483670296" stroke-linecap="round" />
</g>
		<g transform="matrix(1.21 0 0 1.21 -102.72 71.2)" id="ISnWgauX4HOF_ewcYmKTw"  >
<path style="stroke: rgb(240,100,73); stroke-width: 3; stroke-dasharray: none; stroke-linecap: round; stroke-dashoffset: 0; stroke-linejoin: round; stroke-miterlimit: 10; fill: none; fill-rule: nonzero; opacity: 1;"   transform=" translate(-237.88, -324.98)" d="M 213.00155520995344 339.41202021772943 Q 213.00155520995344 339.40902021772945 213.00155520995344 337.9160186625195 Q 213.00155520995344 336.42301710730953 213.00155520995344 335.92534992223955 Q 213.00155520995344 335.42768273716956 213.49922239502342 334.9300155520996 Q 213.9968895800934 334.4323483670296 214.4945567651634 333.4370139968896 Q 214.99222395023338 332.44167962674965 215.98755832037332 330.4510108864697 Q 216.98289269051327 328.4603421461898 217.97822706065324 327.46500777604984 Q 218.9735614307932 326.4696734059099 219.96889580093318 324.9766718506999 Q 220.96423017107315 323.48367029548996 221.95956454121313 322.48833592535 Q 222.9548989113531 321.49300155521 223.95023328149307 320.49766718507004 Q 224.94556765163304 319.50233281493007 225.940902021773 318.0093312597201 Q 226.93623639191298 316.51632970451016 227.93157076205296 315.5209953343702 Q 228.92690513219293 314.5256609642302 229.4245723172629 314.0279937791602 Q 229.9222395023329 313.53032659409024 230.91757387247287 313.03265940902025 Q 231.91290824261284 312.53499222395027 232.41057542768283 312.0373250388803 Q 232.90824261275282 311.5396578538103 233.9035769828928 311.0419906687403 Q 234.89891135303276 310.5443234836703 235.8942457231727 310.5443234836703 Q 236.88958009331265 310.5443234836703 237.88491446345262 310.5443234836703 Q 238.8802488335926 310.5443234836703 239.37791601866257 310.5443234836703 Q 239.87558320373256 310.5443234836703 240.37325038880255 310.5443234836703 Q 240.87091757387253 310.5443234836703 241.8662519440125 310.5443234836703 Q 242.86158631415248 310.5443234836703 243.35925349922246 310.5443234836703 Q 243.85692068429245 310.5443234836703 244.35458786936243 311.0419906687403 Q 244.85225505443242 311.5396578538103 245.3499222395024 311.5396578538103 Q 245.8475894245724 311.5396578538103 245.8475894245724 312.0373250388803 Q 245.8475894245724 312.53499222395027 246.34525660964238 312.53499222395027 Q 246.84292379471236 312.53499222395027 246.84292379471236 313.03265940902025 Q 246.84292379471236 313.53032659409024 247.34059097978235 313.53032659409024 Q 247.83825816485233 313.53032659409024 247.83825816485233 314.0279937791602 Q 247.83825816485233 314.5256609642302 247.83825816485233 315.0233281493002 Q 247.83825816485233 315.5209953343702 247.83825816485233 316.01866251944017 Q 247.83825816485233 316.51632970451016 248.33592534992232 316.01866251944017 Q 248.8335925349923 315.5209953343702 249.3312597200623 315.5209953343702 Q 249.82892690513228 315.5209953343702 250.82426127527225 315.5209953343702 Q 251.81959564541222 315.5209953343702 252.3172628304822 315.5209953343702 Q 252.8149300155522 315.5209953343702 253.31259720062218 315.5209953343702 Q 253.81026438569216 315.5209953343702 254.30793157076215 315.5209953343702 Q 254.80559875583214 315.5209953343702 255.3032659409021 316.01866251944017 Q 255.80093312597205 316.51632970451016 255.80093312597205 317.01399688958014 Q 255.80093312597205 317.5116640746501 255.80093312597205 318.0093312597201 Q 255.80093312597205 318.5069984447901 255.80093312597205 319.0046656298601 Q 255.80093312597205 319.50233281493007 255.3032659409021 320.00000000000006 Q 254.80559875583214 320.49766718507004 254.80559875583214 320.99533437014003 Q 254.80559875583214 321.49300155521 254.30793157076215 321.99066874028 Q 253.81026438569216 322.48833592535 254.30793157076215 322.48833592535 Q 254.80559875583214 322.48833592535 255.3032659409021 322.48833592535 Q 255.80093312597205 322.48833592535 256.29860031104204 322.48833592535 Q 256.796267496112 322.48833592535 257.293934681182 322.48833592535 Q 257.791601866252 322.48833592535 258.289269051322 322.48833592535 Q 258.78693623639197 322.48833592535 259.28460342146195 322.48833592535 Q 259.78227060653194 322.48833592535 260.2799377916019 322.98600311042 Q 260.7776049766719 323.48367029548996 260.7776049766719 323.98133748055994 Q 260.7776049766719 324.47900466562993 261.2752721617419 324.9766718506999 Q 261.7729393468119 325.4743390357699 262.27060653188187 325.9720062208399 Q 262.76827371695185 326.4696734059099 262.76827371695185 326.96734059097986 Q 262.76827371695185 327.46500777604984 262.76827371695185 327.96267496111983 Q 262.76827371695185 328.4603421461898 262.76827371695185 328.95800933125975 Q 262.76827371695185 329.45567651632973 262.76827371695185 330.4510108864697 Q 262.76827371695185 331.4463452566097 262.76827371695185 331.94401244167966 Q 262.76827371695185 332.44167962674965 262.76827371695185 332.93934681181963 Q 262.76827371695185 333.4370139968896 262.27060653188187 333.9346811819596 Q 261.7729393468119 334.4323483670296 261.7729393468119 334.9300155520996 Q 261.7729393468119 335.42768273716956 261.2752721617419 335.42768273716956 Q 260.7776049766719 335.42768273716956 260.2799377916019 335.92534992223955 L 259.77927060653195 336.4260171073095" stroke-linecap="round" />
</g>
		<g transform="matrix(1.29 0 0 1.29 85.04 62.18)" id="iiXUv4h5wy4UtVunQAMH_"  >
<path style="stroke: rgb(240,100,73); stroke-width: 3; stroke-dasharray: none; stroke-linecap: round; stroke-dashoffset: 0; stroke-linejoin: round; stroke-miterlimit: 10; fill: none; fill-rule: nonzero; opacity: 1;"   transform=" translate(-356.83, -318.51)" d="M 339.41202021772943 332.44467962674963 Q 339.40902021772945 332.44167962674965 338.4136858475895 330.4510108864697 Q 337.4183514774495 328.4603421461898 336.42301710730953 327.46500777604984 Q 335.42768273716956 326.4696734059099 334.9300155520996 325.4743390357699 Q 334.4323483670296 324.47900466562993 334.4323483670296 322.98600311042 Q 334.4323483670296 321.49300155521 333.9346811819596 320.49766718507004 Q 333.4370139968897 319.50233281493007 333.4370139968897 319.0046656298601 Q 333.4370139968897 318.5069984447901 333.4370139968897 317.5116640746501 Q 333.4370139968897 316.51632970451016 333.4370139968897 316.01866251944017 Q 333.4370139968897 315.5209953343702 333.4370139968897 314.5256609642302 Q 333.4370139968897 313.53032659409024 334.4323483670296 313.03265940902025 Q 335.42768273716956 312.53499222395027 336.42301710730953 312.0373250388803 Q 337.4183514774495 311.5396578538103 337.9160186625195 311.5396578538103 Q 338.4136858475895 311.5396578538103 338.91135303265946 311.5396578538103 Q 339.40902021772945 311.5396578538103 340.4043545878694 311.5396578538103 Q 341.3996889580094 311.5396578538103 341.8973561430794 312.0373250388803 Q 342.39502332814936 312.53499222395027 342.89269051321935 313.03265940902025 Q 343.39035769828934 313.53032659409024 343.8880248833593 314.0279937791602 Q 344.3856920684293 314.5256609642302 344.8833592534993 314.5256609642302 Q 345.3810264385693 314.5256609642302 345.3810264385693 315.0233281493002 Q 345.3810264385693 315.5209953343702 344.8833592534993 315.0233281493002 Q 344.3856920684293 314.5256609642302 344.3856920684293 314.0279937791602 Q 344.3856920684293 313.53032659409024 343.8880248833593 313.03265940902025 Q 343.39035769828934 312.53499222395027 343.39035769828934 312.0373250388803 Q 343.39035769828934 311.5396578538103 343.39035769828934 311.0419906687403 Q 343.39035769828934 310.5443234836703 343.39035769828934 310.04665629860034 Q 343.39035769828934 309.54898911353035 343.8880248833593 309.54898911353035 Q 344.3856920684293 309.54898911353035 344.3856920684293 308.55365474339044 Q 344.3856920684293 307.55832037325047 344.8833592534993 307.55832037325047 Q 345.3810264385693 307.55832037325047 345.87869362363926 307.55832037325047 Q 346.37636080870925 307.55832037325047 347.3716951788492 307.55832037325047 Q 348.3670295489892 307.55832037325047 348.8646967340592 307.55832037325047 Q 349.36236391912917 307.55832037325047 350.35769828926914 307.55832037325047 Q 351.3530326594091 307.55832037325047 352.3483670295491 308.05598755832045 Q 353.34370139968905 308.55365474339044 353.84136858475904 309.0513219284604 Q 354.33903576982897 309.54898911353035 354.33903576982897 308.55365474339044 Q 354.33903576982897 307.55832037325047 354.83670295489895 307.0606531881805 Q 355.33437013996894 306.5629860031105 355.8320373250389 305.5676516329705 Q 356.3297045101089 304.57231726283055 357.3250388802489 304.57231726283055 Q 358.32037325038885 304.57231726283055 358.81804043545884 304.57231726283055 Q 359.3157076205288 304.57231726283055 359.8133748055988 304.57231726283055 Q 360.3110419906688 304.57231726283055 361.30637636080877 304.57231726283055 Q 362.30171073094874 304.57231726283055 363.2970451010887 304.57231726283055 Q 364.2923794712287 304.57231726283055 364.79004665629867 305.06998444790054 Q 365.28771384136866 305.5676516329705 365.78538102643864 306.0653188180405 Q 366.2830482115086 306.5629860031105 367.2783825816486 307.0606531881805 Q 368.2737169517886 307.55832037325047 368.77138413685856 308.05598755832045 Q 369.26905132192854 308.55365474339044 369.76671850699853 309.0513219284604 Q 370.2643856920685 309.54898911353035 371.2597200622085 311.0419906687403 Q 372.25505443234846 312.53499222395027 372.75272161741844 313.03265940902025 Q 373.25038880248843 313.53032659409024 374.24572317262835 315.0233281493002 Q 375.2410575427683 316.51632970451016 375.7387247278383 317.01399688958014 Q 376.2363919129083 317.5116640746501 376.2363919129083 318.0093312597201 Q 376.2363919129083 318.5069984447901 377.23172628304826 320.00000000000006 Q 378.22706065318823 321.49300155521 378.22706065318823 321.99066874028 Q 378.22706065318823 322.48833592535 378.7247278382582 322.98600311042 Q 379.2223950233282 323.48367029548996 379.7200622083982 324.47900466562993 L 380.22072939346816 325.4773390357699" stroke-linecap="round" />
</g>
		<g transform="matrix(1.6 0 0 1.6 -132.23 27.42)" id="7yWoyM1-CGwCg1JsAkeYE"  >
<path style="stroke: rgb(240,100,73); stroke-width: 3; stroke-dasharray: none; stroke-linecap: round; stroke-dashoffset: 0; stroke-linejoin: round; stroke-miterlimit: 10; fill: none; fill-rule: nonzero; opacity: 1;"   transform=" translate(-225.44, -294.12)" d="M 214.9892239502334 280.6812923794713 Q 214.99222395023338 280.6842923794713 217.48055987558328 284.1679626749612 Q 219.96889580093318 287.6516329704511 220.46656298600317 288.646967340591 Q 220.96423017107315 289.642301710731 223.45256609642308 293.1259720062209 Q 225.940902021773 296.6096423017108 227.43390357698297 298.6003110419907 Q 228.92690513219293 300.59097978227067 230.91757387247287 303.0793157076206 Q 232.90824261275282 305.5676516329705 233.9035769828928 306.5629860031105 Q 234.89891135303276 307.55832037325047 235.39657853810274 307.55832037325047 L 235.89724572317272 307.55832037325047" stroke-linecap="round" />
</g>
		<g transform="matrix(1.6 0 0 1.6 -120.39 27.42)" id="gEqO0Pa6TAHxdlYyHnpoL"  >
<path style="stroke: rgb(240,100,73); stroke-width: 3; stroke-dasharray: none; stroke-linecap: round; stroke-dashoffset: 0; stroke-linejoin: round; stroke-miterlimit: 10; fill: none; fill-rule: nonzero; opacity: 1;"   transform=" translate(-232.84, -294.12)" d="M 220.96123017107317 277.6952892690514 Q 220.96423017107315 277.6982892690514 221.46189735614314 278.69362363919134 Q 221.95956454121313 279.6889580093313 223.45256609642308 282.17729393468124 Q 224.94556765163304 284.6656298600312 227.43390357698297 287.65163297045103 Q 229.9222395023329 290.63763608087095 231.41524105754286 292.6283048211509 Q 232.90824261275282 294.61897356143083 234.40124416796277 296.6096423017108 Q 235.89424572317273 298.6003110419907 237.88491446345265 302.0839813374806 Q 239.87558320373256 305.5676516329705 240.87091757387253 306.5629860031105 Q 241.8662519440125 307.55832037325047 242.3639191290825 308.05598755832045 Q 242.86158631415248 308.55365474339044 243.35925349922246 309.0513219284604 Q 243.85692068429245 309.54898911353035 243.85692068429245 310.04665629860034 Q 243.85692068429245 310.5443234836703 244.35458786936243 310.5443234836703 Q 244.85225505443242 310.5443234836703 244.35458786936243 310.04665629860034 L 243.85392068429246 309.54598911353037" stroke-linecap="round" />
</g>
		<g transform="matrix(1.6 0 0 1.6 -155.31 -21.93)" id="jnZmmEp3CLHcDF8-819SH"  >
<path style="stroke: rgb(240,100,73); stroke-width: 3; stroke-dasharray: none; stroke-linecap: round; stroke-dashoffset: 0; stroke-linejoin: round; stroke-miterlimit: 10; fill: none; fill-rule: nonzero; opacity: 1;"   transform=" translate(-211.01, -263.27)" d="M 211.01388646967348 277.6982892690514 Q 211.0108864696735 277.6982892690514 210.5132192846035 277.6982892690514 Q 210.01555209953352 277.6982892690514 209.02021772939355 277.6982892690514 Q 208.02488335925358 277.6982892690514 207.5272161741836 277.6982892690514 Q 207.0295489891136 277.6982892690514 205.53654743390365 277.2006220839814 Q 204.0435458786937 276.7029548989114 202.55054432348373 276.2052877138414 Q 201.05754276827378 275.70762052877143 200.5598755832038 275.20995334370144 Q 200.0622083981338 274.71228615863146 199.56454121306382 274.21461897356147 Q 199.06687402799383 273.7169517884915 198.07153965785386 272.7216174183515 Q 197.0762052877139 271.72628304821154 197.0762052877139 271.22861586314156 Q 197.0762052877139 270.73094867807157 196.57853810264393 270.23328149300164 Q 196.08087091757398 269.73561430793166 196.08087091757398 269.23794712286167 Q 196.08087091757398 268.7402799377917 196.08087091757398 267.7449455676517 Q 196.08087091757398 266.74961119751174 196.08087091757398 265.75427682737177 Q 196.08087091757398 264.7589424572318 196.08087091757398 264.2612752721618 Q 196.08087091757398 263.7636080870918 196.08087091757398 263.26594090202184 Q 196.08087091757398 262.76827371695185 196.08087091757398 262.27060653188187 Q 196.08087091757398 261.7729393468119 196.08087091757398 261.2752721617419 Q 196.08087091757398 260.7776049766719 196.08087091757398 259.78227060653194 Q 196.08087091757398 258.78693623639197 196.57853810264393 257.791601866252 Q 197.0762052877139 256.796267496112 197.0762052877139 256.29860031104204 Q 197.0762052877139 255.80093312597202 197.57387247278388 255.30326594090204 Q 198.07153965785386 254.80559875583205 198.56920684292385 254.30793157076207 Q 199.06687402799383 253.81026438569208 199.56454121306382 253.3125972006221 Q 200.0622083981338 252.8149300155521 201.05754276827378 251.81959564541214 Q 202.05287713841375 250.82426127527216 202.55054432348373 250.82426127527216 Q 203.04821150855372 250.82426127527216 203.04821150855372 250.3265940902022 Q 203.04821150855372 249.82892690513225 203.5458786936237 249.82892690513225 Q 204.0435458786937 249.82892690513225 205.53654743390365 249.33125972006226 Q 207.0295489891136 248.83359253499228 208.02488335925358 248.83359253499228 Q 209.02021772939355 248.83359253499228 209.51788491446354 248.83359253499228 Q 210.01555209953352 248.83359253499228 211.0108864696735 248.83359253499228 Q 212.00622083981347 248.83359253499228 213.00155520995344 249.33125972006226 Q 213.9968895800934 249.82892690513225 214.99222395023338 250.3265940902022 Q 215.98755832037335 250.82426127527216 216.9828926905133 251.32192846034215 Q 217.97822706065324 251.81959564541214 217.97822706065324 252.31726283048212 Q 217.97822706065324 252.8149300155521 218.47589424572323 253.3125972006221 Q 218.9735614307932 253.81026438569208 219.4712286158632 254.30793157076207 Q 219.96889580093318 254.80559875583205 220.46656298600317 255.80093312597205 Q 220.96423017107315 256.796267496112 221.46189735614314 257.293934681182 Q 221.95956454121313 257.791601866252 222.4572317262831 258.289269051322 Q 222.9548989113531 258.78693623639197 223.45256609642308 259.78227060653194 Q 223.95023328149307 260.7776049766719 224.44790046656306 261.7729393468119 Q 224.94556765163304 262.76827371695185 224.94556765163304 263.26594090202184 Q 224.94556765163304 263.7636080870918 225.44323483670303 265.2566096423018 Q 225.940902021773 266.74961119751174 225.940902021773 267.2472783825817 Q 225.940902021773 267.7449455676517 225.940902021773 268.2426127527217 Q 225.940902021773 268.7402799377917 225.940902021773 269.23794712286167 Q 225.940902021773 269.73561430793166 225.940902021773 270.23328149300164 Q 225.940902021773 270.73094867807157 225.940902021773 271.22861586314156 Q 225.940902021773 271.72628304821154 225.940902021773 272.2239502332815 Q 225.940902021773 272.7216174183515 225.44323483670303 273.2192846034215 Q 224.94556765163304 273.7169517884915 224.44790046656306 274.21461897356147 Q 223.95023328149307 274.71228615863146 223.95023328149307 275.20995334370144 Q 223.95023328149307 275.70762052877143 222.9548989113531 276.7029548989114 L 221.95656454121314 277.70128926905136" stroke-linecap="round" />
</g>
		<g transform="matrix(1.6 0 0 1.6 97.82 8.97)" id="LIfbP6ipf7uerQ5L3dKta"  >
<path style="stroke: rgb(240,100,73); stroke-width: 3; stroke-dasharray: none; stroke-linecap: round; stroke-dashoffset: 0; stroke-linejoin: round; stroke-miterlimit: 10; fill: none; fill-rule: nonzero; opacity: 1;"   transform=" translate(-369.27, -282.59)" d="M 375.2440575427683 262.76527371695187 Q 375.2410575427683 262.76827371695185 374.24572317262835 264.2612752721618 Q 373.25038880248843 265.75427682737177 372.75272161741844 267.2472783825817 Q 372.25505443234846 268.7402799377917 370.7620528771385 273.71695178849154 Q 369.26905132192854 278.69362363919134 367.7760497667186 284.6656298600311 Q 366.2830482115086 290.63763608087095 365.78538102643864 292.6283048211509 Q 365.28771384136866 294.61897356143083 364.79004665629867 297.60497667185075 Q 364.2923794712287 300.59097978227067 363.7947122861587 301.58631415241064 Q 363.2970451010887 302.5816485225506 363.2970451010887 302.0839813374806 L 363.2970451010887 301.58331415241065" stroke-linecap="round" />
</g>
		<g transform="matrix(1.6 0 0 1.6 104.18 12.93)" id="Y4McX2mQIkeB4jvCh9Jub"  >
<path style="stroke: rgb(240,100,73); stroke-width: 3; stroke-dasharray: none; stroke-linecap: round; stroke-dashoffset: 0; stroke-linejoin: round; stroke-miterlimit: 10; fill: none; fill-rule: nonzero; opacity: 1;"   transform=" translate(-373.25, -285.06)" d="M 379.2253950233282 263.76060808709184 Q 379.2223950233282 263.7636080870918 378.7247278382582 266.25194401244175 Q 378.22706065318823 268.7402799377917 377.72939346811825 270.7309486780716 Q 377.23172628304826 272.7216174183515 376.2363919129083 276.7029548989114 Q 375.2410575427683 280.6842923794713 373.2503888024884 286.65629860031106 Q 371.2597200622085 292.6283048211509 370.2643856920685 297.10730948678076 Q 369.26905132192854 301.58631415241064 368.77138413685856 302.0839813374806 Q 368.2737169517886 302.5816485225506 368.2737169517886 304.07465007776057 Q 368.2737169517886 305.5676516329705 367.7760497667186 306.0653188180405 Q 367.2783825816486 306.5629860031105 367.2783825816486 305.06998444790054 L 367.2783825816486 303.5739828926906" stroke-linecap="round" />
</g>
		<g transform="matrix(1.6 0 0 1.6 102.59 -49.8)" id="Ls9cXGMmRJ16bGT3JF2QH"  >
<path style="stroke: rgb(240,100,73); stroke-width: 3; stroke-dasharray: none; stroke-linecap: round; stroke-dashoffset: 0; stroke-linejoin: round; stroke-miterlimit: 10; fill: none; fill-rule: nonzero; opacity: 1;"   transform=" translate(-372.26, -245.85)" d="M 375.2440575427683 259.78227060653194 Q 375.2410575427683 259.78227060653194 374.74339035769833 259.78227060653194 Q 374.24572317262835 259.78227060653194 373.74805598755836 259.78227060653194 Q 373.25038880248843 259.78227060653194 372.75272161741844 259.78227060653194 Q 372.25505443234846 259.78227060653194 371.7573872472785 258.289269051322 Q 371.2597200622085 256.796267496112 370.7620528771385 255.80093312597205 Q 370.2643856920685 254.80559875583205 369.76671850699853 252.8149300155521 Q 369.26905132192854 250.82426127527216 369.26905132192854 249.82892690513222 Q 369.26905132192854 248.83359253499228 369.26905132192854 247.8382581648523 Q 369.26905132192854 246.84292379471233 369.26905132192854 245.84758942457236 Q 369.26905132192854 244.8522550544324 369.76671850699853 243.85692068429242 Q 370.2643856920685 242.86158631415245 370.7620528771385 241.3685847589425 Q 371.2597200622085 239.87558320373253 371.2597200622085 239.37791601866255 Q 371.2597200622085 238.88024883359256 372.25505443234846 237.3872472783826 Q 373.25038880248843 235.89424572317265 373.74805598755836 234.89891135303267 Q 374.24572317262835 233.9035769828927 374.74339035769833 232.90824261275273 L 375.2440575427683 231.90990824261277" stroke-linecap="round" />
</g>
		<g transform="matrix(1.6 0 0 1.6 116.26 -60.93)" id="ZVFmYCMxjmdMAqLsfm9KK"  >
<path style="stroke: rgb(240,100,73); stroke-width: 3; stroke-dasharray: none; stroke-linecap: round; stroke-dashoffset: 0; stroke-linejoin: round; stroke-miterlimit: 10; fill: none; fill-rule: nonzero; opacity: 1;"   transform=" translate(-380.8, -238.88)" d="M 383.2067325038881 232.90824261275273 Q 383.2037325038881 232.90824261275273 382.7060653188181 233.40590979782272 Q 382.2083981337481 233.9035769828927 381.71073094867813 233.9035769828927 Q 381.21306376360815 233.9035769828927 380.71539657853816 235.39657853810266 Q 380.2177293934682 236.88958009331262 379.7200622083982 238.88024883359256 Q 379.2223950233282 240.8709175738725 378.7247278382582 242.36391912908246 Q 378.22706065318823 243.85692068429242 379.2223950233282 244.3545878693624 L 380.22072939346816 244.85525505443238" stroke-linecap="round" />
</g>
		<g transform="matrix(1.6 0 0 1.6 125.68 -57.75)" id="NHaR1HlVot8vbtrX7sFd1"  >
<path style="stroke: rgb(240,100,73); stroke-width: 3; stroke-dasharray: none; stroke-linecap: round; stroke-dashoffset: 0; stroke-linejoin: round; stroke-miterlimit: 10; fill: none; fill-rule: nonzero; opacity: 1;"   transform=" translate(-386.69, -240.87)" d="M 389.1787387247279 234.8959113530327 Q 389.1757387247279 234.89891135303267 388.18040435458795 236.39191290824263 Q 387.185069984448 237.8849144634526 386.687402799378 238.88024883359256 Q 386.189735614308 239.87558320373253 385.692068429238 241.3685847589425 Q 385.19440124416803 242.86158631415245 384.69673405909805 243.85692068429242 Q 384.19906687402806 244.8522550544324 384.19906687402806 245.84758942457236 L 384.19906687402806 246.84592379471232" stroke-linecap="round" />
</g>
		<g transform="matrix(1.6 0 0 1.6 131.25 -42.63)" id="WJBKi9UaMenAtpN2UwqnN"  >
<path style="stroke: rgb(240,100,73); stroke-width: 3; stroke-dasharray: none; stroke-linecap: round; stroke-dashoffset: 0; stroke-linejoin: round; stroke-miterlimit: 10; fill: none; fill-rule: nonzero; opacity: 1;"   transform=" translate(-390.17, -250.33)" d="M 394.1524105754277 238.87724883359257 Q 394.1524105754277 238.88024883359256 394.1524105754277 239.37791601866255 Q 394.1524105754277 239.87558320373253 394.1524105754277 240.8709175738725 Q 394.1524105754277 241.86625194401248 394.1524105754277 242.36391912908246 Q 394.1524105754277 242.86158631415245 394.1524105754277 243.85692068429242 Q 394.1524105754277 244.8522550544324 393.65474339035774 245.84758942457236 Q 393.15707620528775 246.84292379471233 393.15707620528775 247.8382581648523 Q 393.15707620528775 248.83359253499228 393.15707620528775 249.33125972006226 Q 393.15707620528775 249.82892690513225 392.6594090202178 250.8242612752722 Q 392.16174183514784 251.81959564541214 391.66407465007785 253.3125972006221 Q 391.16640746500786 254.80559875583205 390.6687402799379 255.80093312597205 Q 390.1710730948679 256.796267496112 390.1710730948679 257.293934681182 Q 390.1710730948679 257.791601866252 389.6734059097979 258.289269051322 Q 389.1757387247279 258.78693623639197 388.67807153965794 259.28460342146195 Q 388.18040435458795 259.78227060653194 387.68273716951796 259.78227060653194 Q 387.185069984448 259.78227060653194 386.687402799378 260.2799377916019 Q 386.189735614308 260.7776049766719 386.189735614308 261.2752721617419 L 386.189735614308 261.77593934681187" stroke-linecap="round" />
</g>
		<g transform="matrix(1.6 0 0 1.6 -150.45 62.44)" id="cB6jVI3v2OcZ7iFZedDn0"  >
<path style="stroke: rgb(240,100,73); stroke-width: 3; stroke-dasharray: none; stroke-linecap: round; stroke-dashoffset: 0; stroke-linejoin: round; stroke-miterlimit: 10; fill: none; fill-rule: nonzero; opacity: 1;"   transform=" translate(-209.52, -316.02)" d="M 214.99522395023337 299.5926454121307 Q 214.99222395023338 299.5956454121307 213.49922239502342 303.5769828926906 Q 212.00622083981347 307.55832037325047 211.50855365474348 310.0466562986004 Q 211.0108864696735 312.53499222395027 210.01555209953352 315.5209953343702 Q 209.02021772939355 318.5069984447901 207.5272161741836 321.99066874028 Q 206.03421461897364 325.4743390357699 206.03421461897364 326.4696734059099 Q 206.03421461897364 327.46500777604984 205.53654743390365 328.46034214618976 Q 205.03888024883366 329.45567651632973 204.54121306376368 330.9486780715397 L 204.0405458786937 332.44467962674963" stroke-linecap="round" />
</g>
		<g transform="matrix(1.6 0 0 1.6 -38.2 -60.93)" id="bmh4X7KeF-06CkNU7BrHi"  >
<path style="stroke: rgb(240,100,73); stroke-width: 3; stroke-dasharray: none; stroke-linecap: round; stroke-dashoffset: 0; stroke-linejoin: round; stroke-miterlimit: 10; fill: none; fill-rule: nonzero; opacity: 1;"   transform=" translate(-284.23, -238.88)" d="M 235.89124572317274 258.78993623639195 Q 235.89424572317273 258.78693623639197 235.39657853810274 258.78693623639197 Q 234.89891135303276 258.78693623639197 235.39657853810274 258.289269051322 Q 235.89424572317273 257.791601866252 236.3919129082427 256.29860031104204 Q 236.88958009331265 254.80559875583205 237.38724727838263 253.81026438569208 Q 237.88491446345262 252.8149300155521 238.8802488335926 251.32192846034218 Q 239.87558320373256 249.82892690513225 241.36858475894252 246.84292379471233 Q 242.86158631415248 243.85692068429242 244.85225505443242 241.3685847589425 Q 246.84292379471236 238.88024883359256 247.83825816485233 236.88958009331262 Q 248.8335925349923 234.89891135303267 249.3312597200623 234.4012441679627 Q 249.82892690513228 233.9035769828927 250.32659409020226 232.90824261275273 Q 250.82426127527225 231.91290824261276 252.3172628304822 230.41990668740283 Q 253.81026438569216 228.9269051321929 254.30793157076215 227.93157076205293 Q 254.80559875583214 226.93623639191296 255.80093312597208 225.94090202177298 Q 256.796267496112 224.945567651633 257.293934681182 224.44790046656303 Q 257.791601866252 223.95023328149304 258.289269051322 223.45256609642306 Q 258.78693623639197 222.95489891135307 259.28460342146195 222.45723172628308 Q 259.78227060653194 221.9595645412131 259.78227060653194 221.4618973561431 Q 259.78227060653194 220.96423017107313 260.2799377916019 220.46656298600314 Q 260.7776049766719 219.96889580093315 261.2752721617419 219.96889580093315 Q 261.7729393468119 219.96889580093315 262.27060653188187 219.47122861586317 Q 262.76827371695185 218.97356143079318 263.26594090202184 218.97356143079318 Q 263.7636080870918 218.97356143079318 264.2612752721618 218.97356143079318 Q 264.7589424572318 218.97356143079318 265.2566096423018 219.47122861586317 Q 265.75427682737177 219.96889580093315 265.75427682737177 220.46656298600314 Q 265.75427682737177 220.96423017107313 266.25194401244175 221.4618973561431 Q 266.74961119751174 221.9595645412131 267.2472783825817 222.45723172628308 Q 267.7449455676517 222.95489891135307 267.7449455676517 223.45256609642306 Q 267.7449455676517 223.95023328149304 268.2426127527217 224.44790046656303 Q 268.7402799377917 224.945567651633 268.7402799377917 225.443234836703 Q 268.7402799377917 225.94090202177298 269.23794712286167 226.93623639191296 Q 269.73561430793166 227.93157076205293 269.73561430793166 228.4292379471229 Q 269.73561430793166 228.9269051321929 270.23328149300164 229.92223950233284 Q 270.7309486780716 230.9175738724728 270.7309486780716 231.41524105754277 Q 270.7309486780716 231.91290824261276 271.2286158631416 232.90824261275273 Q 271.7262830482116 233.9035769828927 272.2239502332816 234.4012441679627 Q 272.72161741835157 234.89891135303267 273.21928460342156 235.39657853810266 Q 273.71695178849154 235.89424572317265 273.71695178849154 236.88958009331262 Q 273.71695178849154 237.8849144634526 274.2146189735615 237.8849144634526 Q 274.7122861586315 237.8849144634526 274.7122861586315 238.88024883359256 Q 274.7122861586315 239.87558320373253 275.2099533437015 240.37325038880252 Q 275.70762052877143 240.8709175738725 275.70762052877143 241.3685847589425 Q 275.70762052877143 241.86625194401248 276.2052877138414 242.36391912908246 Q 276.7029548989114 242.86158631415245 276.7029548989114 243.35925349922243 Q 276.7029548989114 243.85692068429242 277.6982892690514 243.85692068429242 Q 278.69362363919134 243.85692068429242 279.6889580093313 243.85692068429242 Q 280.6842923794713 243.85692068429242 281.1819595645413 243.85692068429242 Q 281.67962674961126 243.85692068429242 283.1726283048212 243.85692068429242 Q 284.6656298600312 243.85692068429242 285.66096423017115 243.85692068429242 Q 286.6562986003111 243.85692068429242 288.1493001555211 243.85692068429242 Q 289.64230171073103 243.85692068429242 291.135303265941 243.85692068429242 Q 292.62830482115095 243.85692068429242 293.12597200622093 243.85692068429242 Q 293.6236391912909 243.85692068429242 294.61897356143083 243.85692068429242 Q 295.6143079315708 243.85692068429242 297.10730948678076 243.85692068429242 Q 298.6003110419907 243.85692068429242 300.0933125972007 243.85692068429242 Q 301.58631415241064 243.85692068429242 302.0839813374806 243.85692068429242 Q 302.5816485225506 243.85692068429242 303.0793157076206 243.85692068429242 Q 303.5769828926906 243.85692068429242 304.07465007776057 243.85692068429242 Q 304.57231726283055 243.85692068429242 305.06998444790054 243.85692068429242 Q 305.5676516329705 243.85692068429242 306.0653188180405 243.85692068429242 Q 306.5629860031105 243.85692068429242 307.0606531881805 243.85692068429242 Q 307.55832037325047 243.85692068429242 307.55832037325047 243.35925349922243 Q 307.55832037325047 242.86158631415245 307.55832037325047 242.36391912908246 Q 307.55832037325047 241.86625194401248 307.55832037325047 241.3685847589425 Q 307.55832037325047 240.8709175738725 307.55832037325047 239.87558320373253 Q 307.55832037325047 238.88024883359256 307.55832037325047 238.38258164852257 Q 307.55832037325047 237.8849144634526 308.05598755832045 236.39191290824263 Q 308.55365474339044 234.89891135303267 308.55365474339044 234.4012441679627 Q 308.55365474339044 233.9035769828927 309.0513219284604 233.40590979782272 Q 309.5489891135304 232.90824261275273 311.04199066874037 229.92223950233284 Q 312.5349922239503 226.93623639191296 313.0326594090203 225.94090202177298 Q 313.5303265940903 224.945567651633 313.5303265940903 224.44790046656303 Q 313.5303265940903 223.95023328149304 314.0279937791603 223.95023328149304 Q 314.5256609642302 223.95023328149304 314.5256609642302 223.45256609642306 Q 314.5256609642302 222.95489891135307 315.0233281493002 222.45723172628308 Q 315.5209953343702 221.9595645412131 316.01866251944017 221.9595645412131 Q 316.51632970451016 221.9595645412131 317.01399688958014 221.9595645412131 Q 317.5116640746501 221.9595645412131 318.0093312597201 221.9595645412131 Q 318.5069984447901 221.9595645412131 319.0046656298601 221.9595645412131 Q 319.50233281493007 221.9595645412131 320.00000000000006 221.9595645412131 Q 320.49766718507004 221.9595645412131 320.99533437014003 222.45723172628308 Q 321.49300155521 222.95489891135307 321.99066874028 222.95489891135307 Q 322.48833592535 222.95489891135307 322.98600311042 223.45256609642306 Q 323.48367029548996 223.95023328149304 323.98133748055994 224.44790046656303 Q 324.47900466562993 224.945567651633 325.4743390357699 226.43856920684297 Q 326.4696734059099 227.93157076205293 327.46500777604984 228.4292379471229 Q 328.4603421461898 228.9269051321929 328.9580093312598 230.41990668740283 Q 329.4556765163298 231.91290824261276 330.45101088646976 232.41057542768274 Q 331.44634525660973 232.90824261275273 332.4416796267497 233.9035769828927 L 333.44001399688966 234.90191135303266" stroke-linecap="round" />
</g>
		<g transform="matrix(1.6 0 0 1.6 65.18 -30.69)" id="D8a-MFIrlB0RznBg2x6V7"  >
<path style="stroke: rgb(240,100,73); stroke-width: 3; stroke-dasharray: none; stroke-linecap: round; stroke-dashoffset: 0; stroke-linejoin: round; stroke-miterlimit: 10; fill: none; fill-rule: nonzero; opacity: 1;"   transform=" translate(-348.86, -257.79)" d="M 336.42001710730955 240.86791757387252 Q 336.42301710730953 240.8709175738725 336.9206842923795 241.3685847589425 Q 337.4183514774495 241.86625194401248 337.9160186625195 242.36391912908246 Q 338.4136858475895 242.86158631415245 339.40902021772945 244.3545878693624 Q 340.4043545878694 245.84758942457236 341.8973561430794 247.8382581648523 Q 343.39035769828934 249.82892690513225 344.3856920684293 251.32192846034218 Q 345.3810264385693 252.8149300155521 346.37636080870925 254.30793157076207 Q 347.3716951788492 255.80093312597202 348.8646967340592 258.289269051322 Q 350.35769828926914 260.7776049766719 351.3530326594091 261.7729393468119 Q 352.3483670295491 262.76827371695185 352.84603421461907 263.7636080870918 Q 353.34370139968905 264.7589424572318 354.836702954899 266.74961119751174 Q 356.3297045101089 268.7402799377917 356.8273716951789 269.73561430793166 Q 357.3250388802489 270.73094867807157 358.32037325038885 271.22861586314156 Q 359.3157076205288 271.72628304821154 359.3157076205288 272.2239502332815 Q 359.3157076205288 272.7216174183515 359.8133748055988 273.2192846034215 Q 360.3110419906688 273.7169517884915 360.8087091757388 274.21461897356147 L 361.30937636080876 274.71528615863144" stroke-linecap="round" />
</g>
		<g transform="matrix(1.58 0.25 -0.25 1.58 121.61 50.64)" id="1PLdYgBoD_0VV6L241FYJ"  >
<path style="stroke: rgb(240,100,73); stroke-width: 3; stroke-dasharray: none; stroke-linecap: round; stroke-dashoffset: 0; stroke-linejoin: round; stroke-miterlimit: 10; fill: none; fill-rule: nonzero; opacity: 1;"   transform=" translate(-386.6, -308.05)" d="M 376.2333919129083 293.6206391912909 Q 376.2363919129083 293.62363919129086 378.22706065318823 295.6143079315708 Q 380.2177293934682 297.60497667185075 381.71073094867813 300.0933125972007 Q 383.2037325038881 302.5816485225506 385.19440124416803 305.06998444790054 Q 387.185069984448 307.55832037325047 388.67807153965794 310.0466562986004 Q 390.1710730948679 312.53499222395027 391.66407465007785 314.0279937791602 Q 393.15707620528775 315.5209953343702 394.1524105754277 318.0093312597201 Q 395.1477449455677 320.49766718507004 396.14307931570767 321.49300155521 Q 397.13841368584764 322.48833592535 396.64074650077765 322.48833592535 L 396.1400793157077 322.48833592535" stroke-linecap="round" />
</g>
		<g transform="matrix(1.6 0 0 1.6 -57.5 -30.27)" id="JGC7BHrROmL3061dnO9hI"  >
<path style="stroke: rgb(240,100,73); stroke-width: 3; stroke-dasharray: none; stroke-linecap: round; stroke-dashoffset: 0; stroke-linejoin: round; stroke-miterlimit: 10; fill: none; fill-rule: nonzero; opacity: 1;"   transform=" translate(-269.3, -257.3)" d="M 268.7372799377917 256.796267496112 Q 268.7402799377917 256.796267496112 268.2426127527217 256.796267496112 Q 267.7449455676517 256.796267496112 268.2426127527217 256.796267496112 Q 268.7402799377917 256.796267496112 268.7402799377917 257.293934681182 Q 268.7402799377917 257.791601866252 269.23794712286167 257.791601866252 Q 269.73561430793166 257.791601866252 270.23328149300164 257.293934681182 Q 270.7309486780716 256.796267496112 270.7309486780716 256.29860031104204 Q 270.7309486780716 255.80093312597202 270.23328149300164 255.80093312597202 Q 269.73561430793166 255.80093312597202 269.23794712286167 255.80093312597202 Q 268.7402799377917 255.80093312597202 268.7402799377917 256.796267496112 Q 268.7402799377917 257.791601866252 269.73561430793166 258.289269051322 L 270.7339486780716 258.78993623639195" stroke-linecap="round" />
</g>
		<g transform="matrix(1.6 0 0 1.6 0.69 -30.97)" id="mBaOcoDoTaIKuKXo4b_b8"  >
<path style="stroke: rgb(240,100,73); stroke-width: 3; stroke-dasharray: none; stroke-linecap: round; stroke-dashoffset: 0; stroke-linejoin: round; stroke-miterlimit: 10; fill: none; fill-rule: nonzero; opacity: 1;"   transform=" translate(-310.05, -255.74)" d="M 309.5489891135304 253.8072643856921 Q 309.5489891135304 253.81026438569208 309.0513219284604 254.80559875583205 Q 308.55365474339044 255.80093312597202 308.55365474339044 256.29860031104204 Q 308.55365474339044 256.796267496112 309.5489891135304 257.293934681182 Q 310.5443234836704 257.791601866252 311.04199066874037 257.293934681182 Q 311.53965785381035 256.796267496112 311.53965785381035 256.29860031104204 Q 311.53965785381035 255.80093312597202 311.53965785381035 255.30326594090204 Q 311.53965785381035 254.80559875583205 311.04199066874037 255.30326594090204 L 310.5413234836704 255.803933125972" stroke-linecap="round" />
</g>
		<g transform="matrix(1.6 0 0 1.6 -61.29 42.18)" id="6VTvjxKo34ikhho55_tLt"  >
<path style="stroke: rgb(240,100,73); stroke-width: 3; stroke-dasharray: none; stroke-linecap: round; stroke-dashoffset: 0; stroke-linejoin: round; stroke-miterlimit: 10; fill: none; fill-rule: nonzero; opacity: 1;"   transform=" translate(-264.76, -297.11)" d="M 266.74961119751174 289.639301710731 Q 266.74961119751174 289.642301710731 266.74961119751174 290.63763608087095 Q 266.74961119751174 291.6329704510109 266.74961119751174 293.1259720062209 Q 266.74961119751174 294.61897356143083 266.25194401244175 296.1119751166408 Q 265.75427682737177 297.60497667185075 265.75427682737177 298.6003110419907 Q 265.75427682737177 299.5956454121307 265.2566096423018 300.59097978227067 Q 264.7589424572318 301.58631415241064 263.7636080870918 303.0793157076206 L 262.76527371695187 304.57531726283054" stroke-linecap="round" />
</g>
		<g transform="matrix(1.6 0 0 1.6 -57.31 37.4)" id="dReLqyQAhUZ7ZN8nfvXgO"  >
<path style="stroke: rgb(240,100,73); stroke-width: 3; stroke-dasharray: none; stroke-linecap: round; stroke-dashoffset: 0; stroke-linejoin: round; stroke-miterlimit: 10; fill: none; fill-rule: nonzero; opacity: 1;"   transform=" translate(-267.25, -294.12)" d="M 259.77927060653195 296.6096423017108 Q 259.78227060653194 296.6096423017108 261.2752721617419 296.1119751166408 Q 262.76827371695185 295.6143079315708 263.7636080870918 295.6143079315708 Q 264.7589424572318 295.6143079315708 265.75427682737177 295.1166407465008 Q 266.74961119751174 294.61897356143083 268.2426127527217 294.12130637636085 Q 269.73561430793166 293.62363919129086 270.7309486780716 293.1259720062209 Q 271.7262830482116 292.6283048211509 272.2239502332816 292.1306376360809 Q 272.72161741835157 291.6329704510109 273.71695178849154 291.6329704510109 L 274.7152861586315 291.6329704510109" stroke-linecap="round" />
</g>
		<g transform="matrix(1.6 0 0 1.6 -45.37 42.18)" id="TZckUzf97N18qqJWHuKYX"  >
<path style="stroke: rgb(240,100,73); stroke-width: 3; stroke-dasharray: none; stroke-linecap: round; stroke-dashoffset: 0; stroke-linejoin: round; stroke-miterlimit: 10; fill: none; fill-rule: nonzero; opacity: 1;"   transform=" translate(-274.71, -297.11)" d="M 270.72794867807164 297.60497667185075 Q 270.7309486780716 297.60497667185075 272.2239502332816 297.10730948678076 Q 273.71695178849154 296.6096423017108 274.7122861586315 296.6096423017108 Q 275.70762052877143 296.6096423017108 276.2052877138414 296.6096423017108 Q 276.7029548989114 296.6096423017108 277.2006220839814 296.6096423017108 Q 277.6982892690514 296.6096423017108 278.19595645412136 297.10730948678076 L 278.69662363919133 297.60797667185074" stroke-linecap="round" />
</g>
		<g transform="matrix(1.6 0 0 1.6 -43.78 53.32)" id="ZvfUc97Z0iLxc3kWu8VrS"  >
<path style="stroke: rgb(240,100,73); stroke-width: 3; stroke-dasharray: none; stroke-linecap: round; stroke-dashoffset: 0; stroke-linejoin: round; stroke-miterlimit: 10; fill: none; fill-rule: nonzero; opacity: 1;"   transform=" translate(-275.71, -304.07)" d="M 271.7232830482116 304.57231726283055 Q 271.7262830482116 304.57231726283055 273.21928460342156 304.57231726283055 Q 274.7122861586315 304.57231726283055 275.2099533437015 304.57231726283055 Q 275.70762052877143 304.57231726283055 276.2052877138414 304.07465007776057 Q 276.7029548989114 303.5769828926906 278.19595645412136 303.5769828926906 L 279.6919580093313 303.5769828926906" stroke-linecap="round" />
</g>
		<g transform="matrix(1.6 0 0 1.6 -15.02 42.18)" id="fjeBhYotD_DO5UDil9SOH"  >
<path style="stroke: rgb(240,100,73); stroke-width: 3; stroke-dasharray: none; stroke-linecap: round; stroke-dashoffset: 0; stroke-linejoin: round; stroke-miterlimit: 10; fill: none; fill-rule: nonzero; opacity: 1;"   transform=" translate(-293.69, -297.11)" d="M 288.6439673405911 296.6096423017108 Q 288.64696734059106 296.6096423017108 288.1493001555211 296.6096423017108 Q 287.6516329704511 296.6096423017108 288.1493001555211 296.6096423017108 Q 288.64696734059106 296.6096423017108 289.14463452566105 296.1119751166408 Q 289.64230171073103 295.6143079315708 290.139968895801 295.1166407465008 Q 290.637636080871 294.61897356143083 291.135303265941 294.12130637636085 Q 291.632970451011 293.62363919129086 292.13063763608096 293.62363919129086 Q 292.62830482115095 293.62363919129086 293.12597200622093 293.62363919129086 Q 293.6236391912909 293.62363919129086 294.1213063763609 293.62363919129086 Q 294.6189735614309 293.62363919129086 295.1166407465008 294.61897356143083 Q 295.6143079315708 295.6143079315708 296.1119751166408 296.1119751166408 Q 296.6096423017108 296.6096423017108 297.10730948678076 297.60497667185075 Q 297.60497667185075 298.6003110419907 297.60497667185075 299.0979782270607 Q 297.60497667185075 299.5956454121307 298.6003110419907 300.0933125972007 L 299.5986454121307 300.59397978227065" stroke-linecap="round" />
</g>
		<g transform="matrix(1.6 0 0 1.6 -8.76 29.44)" id="JPOiThX4r8Dlc4m0JkDNT"  >
<path style="stroke: rgb(240,100,73); stroke-width: 3; stroke-dasharray: none; stroke-linecap: round; stroke-dashoffset: 0; stroke-linejoin: round; stroke-miterlimit: 10; fill: none; fill-rule: nonzero; opacity: 1;"   transform=" translate(-297.6, -289.14)" d="M 295.6113079315708 287.6486329704511 Q 295.6143079315708 287.6516329704511 296.6096423017108 288.1493001555211 Q 297.60497667185075 288.64696734059106 298.6003110419907 289.642301710731 L 299.5986454121307 290.64063608087093" stroke-linecap="round" />
</g>
		<g transform="matrix(1.6 0 0 1.6 0 26.26)" id="rhcEEorXpeDVSEJJQe6vN"  >
<path style="stroke: rgb(240,100,73); stroke-width: 3; stroke-dasharray: none; stroke-linecap: round; stroke-dashoffset: 0; stroke-linejoin: round; stroke-miterlimit: 10; fill: none; fill-rule: nonzero; opacity: 1;"   transform=" translate(-303.08, -287.15)" d="M 300.5879797822707 285.65796423017116 Q 300.59097978227067 285.66096423017115 301.08864696734065 285.66096423017115 Q 301.58631415241064 285.66096423017115 303.5769828926906 287.1539657853811 L 305.5706516329705 288.64996734059105" stroke-linecap="round" />
</g>
		<g transform="matrix(1.6 0 0 1.6 20.7 47.75)" id="dCJb1IlTokXf_qRWW8ksX"  >
<path style="stroke: rgb(240,100,73); stroke-width: 3; stroke-dasharray: none; stroke-linecap: round; stroke-dashoffset: 0; stroke-linejoin: round; stroke-miterlimit: 10; fill: none; fill-rule: nonzero; opacity: 1;"   transform=" translate(-316.02, -300.59)" d="M 314.5226609642302 292.6283048211509 Q 314.5256609642302 292.6283048211509 315.0233281493002 292.6283048211509 Q 315.5209953343702 292.6283048211509 316.51632970451016 292.6283048211509 Q 317.5116640746501 292.6283048211509 318.0093312597201 292.6283048211509 Q 318.5069984447901 292.6283048211509 319.0046656298601 292.6283048211509 Q 319.50233281493007 292.6283048211509 320.00000000000006 292.6283048211509 Q 320.49766718507004 292.6283048211509 320.49766718507004 293.1259720062209 Q 320.49766718507004 293.62363919129086 320.00000000000006 294.12130637636085 Q 319.50233281493007 294.61897356143083 319.0046656298601 295.1166407465008 Q 318.5069984447901 295.6143079315708 318.5069984447901 296.1119751166408 Q 318.5069984447901 296.6096423017108 318.0093312597201 296.6096423017108 Q 317.5116640746501 296.6096423017108 318.0093312597201 296.6096423017108 Q 318.5069984447901 296.6096423017108 319.0046656298601 296.6096423017108 Q 319.50233281493007 296.6096423017108 320.00000000000006 297.10730948678076 Q 320.49766718507004 297.60497667185075 320.99533437014003 297.60497667185075 Q 321.49300155521 297.60497667185075 321.49300155521 298.10264385692074 Q 321.49300155521 298.6003110419907 321.49300155521 299.0979782270607 Q 321.49300155521 299.5956454121307 320.99533437014003 300.59097978227067 Q 320.49766718507004 301.58631415241064 320.49766718507004 302.0839813374806 Q 320.49766718507004 302.5816485225506 320.00000000000006 303.0793157076206 Q 319.50233281493007 303.5769828926906 319.50233281493007 304.07465007776057 Q 319.50233281493007 304.57231726283055 319.0046656298601 305.5676516329705 Q 318.5069984447901 306.5629860031105 318.0093312597201 307.0606531881805 Q 317.5116640746501 307.55832037325047 317.01399688958014 307.55832037325047 Q 316.51632970451016 307.55832037325047 316.01866251944017 308.05598755832045 Q 315.5209953343702 308.55365474339044 315.0233281493002 308.55365474339044 Q 314.5256609642302 308.55365474339044 314.0279937791603 308.55365474339044 Q 313.5303265940903 308.55365474339044 313.0326594090203 308.55365474339044 Q 312.5349922239503 308.55365474339044 312.03732503888034 308.55365474339044 Q 311.53965785381035 308.55365474339044 311.53965785381035 308.05598755832045 Q 311.53965785381035 307.55832037325047 311.04199066874037 307.55832037325047 Q 310.5443234836704 307.55832037325047 310.5443234836704 307.0606531881805 Q 310.5443234836704 306.5629860031105 310.5443234836704 306.0653188180405 Q 310.5443234836704 305.5676516329705 311.04199066874037 305.06998444790054 Q 311.53965785381035 304.57231726283055 312.03732503888034 304.07465007776057 Q 312.5349922239503 303.5769828926906 313.0326594090203 303.5769828926906 Q 313.5303265940903 303.5769828926906 314.0279937791603 303.5769828926906 Q 314.5256609642302 303.5769828926906 315.0233281493002 303.5769828926906 Q 315.5209953343702 303.5769828926906 316.01866251944017 304.07465007776057 Q 316.51632970451016 304.57231726283055 316.51632970451016 305.06998444790054 Q 316.51632970451016 305.5676516329705 317.01399688958014 306.0653188180405 L 317.5146640746501 306.5659860031105" stroke-linecap="round" />
</g>
		<g transform="matrix(1.6 0 0 1.6 -105.17 -45.71)" id="UVG4RkFGeFhHQ3QicKXSK"  >
<path style="stroke: rgb(240,100,73); stroke-width: 3; stroke-dasharray: none; stroke-linecap: round; stroke-dashoffset: 0; stroke-linejoin: round; stroke-miterlimit: 10; fill: none; fill-rule: nonzero; opacity: 1;"   transform=" translate(-242.36, -248.4)" d="M 237.88191446345263 243.85392068429243 Q 237.88491446345262 243.85692068429242 237.88491446345262 243.35925349922243 Q 237.88491446345262 242.86158631415245 238.3825816485226 243.35925349922243 Q 238.8802488335926 243.85692068429242 239.87558320373256 245.34992223950238 Q 240.87091757387253 246.84292379471233 241.8662519440125 247.8382581648523 Q 242.86158631415248 248.83359253499228 243.85692068429245 250.3265940902022 Q 244.85225505443242 251.81959564541214 245.8475894245724 252.8149300155521 L 246.84592379471235 253.81326438569207" stroke-linecap="round" />
</g>
		<g transform="matrix(1.6 0 0 1.6 -101.18 -56.16)" id="OKGz34DaYhABXi7Mzj7rt"  >
<path style="stroke: rgb(240,100,73); stroke-width: 3; stroke-dasharray: none; stroke-linecap: round; stroke-dashoffset: 0; stroke-linejoin: round; stroke-miterlimit: 10; fill: none; fill-rule: nonzero; opacity: 1;"   transform=" translate(-244.85, -241.87)" d="M 240.87091757387253 234.8959113530327 Q 240.87091757387253 234.89891135303267 242.86158631415248 237.8849144634526 Q 244.85225505443242 240.8709175738725 244.85225505443242 241.3685847589425 Q 244.85225505443242 241.86625194401248 245.3499222395024 242.86158631415245 Q 245.8475894245724 243.85692068429242 247.34059097978235 246.34525660964235 L 248.8365925349923 248.83659253499226" stroke-linecap="round" />
</g>
		<g transform="matrix(1.6 0 0 1.6 50.06 -50.59)" id="f1mmzMTPD3caVfjG0v0JJ"  >
<path style="stroke: rgb(240,100,73); stroke-width: 3; stroke-dasharray: none; stroke-linecap: round; stroke-dashoffset: 0; stroke-linejoin: round; stroke-miterlimit: 10; fill: none; fill-rule: nonzero; opacity: 1;"   transform=" translate(-339.41, -245.35)" d="M 343.3933576982893 238.87724883359257 Q 343.39035769828934 238.88024883359256 342.89269051321935 239.87558320373253 Q 342.39502332814936 240.8709175738725 340.4043545878694 243.35925349922243 Q 338.4136858475895 245.84758942457236 337.4183514774495 247.34059097978232 Q 336.42301710730953 248.83359253499228 335.92534992223955 250.3265940902022 L 335.42768273716956 251.81959564541214" stroke-linecap="round" />
</g>
		<g transform="matrix(1.6 0 0 1.6 57.22 -40.24)" id="75pYgHqNc--qKTNRFxyz7"  >
<path style="stroke: rgb(240,100,73); stroke-width: 3; stroke-dasharray: none; stroke-linecap: round; stroke-dashoffset: 0; stroke-linejoin: round; stroke-miterlimit: 10; fill: none; fill-rule: nonzero; opacity: 1;"   transform=" translate(-343.89, -251.82)" d="M 348.3700295489892 245.84458942457238 Q 348.3670295489892 245.84758942457236 347.8693623639192 246.34525660964235 Q 347.3716951788492 246.84292379471233 346.87402799377924 247.34059097978232 Q 346.37636080870925 247.8382581648523 344.8833592534993 249.82892690513222 Q 343.39035769828934 251.81959564541214 341.8973561430794 253.3125972006221 Q 340.4043545878694 254.80559875583205 339.90668740279943 256.29860031104204 L 339.40602021772946 257.794601866252" stroke-linecap="round" />
</g>
		<g transform="matrix(1 0 0 1 -25.98 -10.79)" id="FPPhFP01eRdsF-GUQT8-P"  >
<g style=""    >
		<g transform="matrix(1.6 0 0 1.6 -1.59 3.29)" id="EAd542OmXvO08uWe90-SW"  >
<path style="stroke: rgb(240,100,73); stroke-width: 3; stroke-dasharray: none; stroke-linecap: round; stroke-dashoffset: 0; stroke-linejoin: round; stroke-miterlimit: 10; fill: none; fill-rule: nonzero; opacity: 1;"   transform=" translate(-288.65, -271.29)" d="M 275.70762052877143 268.7372799377917 Q 275.70762052877143 268.7402799377917 275.70762052877143 269.23794712286167 Q 275.70762052877143 269.73561430793166 275.70762052877143 270.23328149300164 Q 275.70762052877143 270.73094867807157 276.2052877138414 271.22861586314156 Q 276.7029548989114 271.72628304821154 276.7029548989114 272.2239502332815 Q 276.7029548989114 272.7216174183515 277.2006220839814 273.2192846034215 Q 277.6982892690514 273.7169517884915 277.6982892690514 274.21461897356147 Q 277.6982892690514 274.71228615863146 278.19595645412136 275.20995334370144 Q 278.69362363919134 275.70762052877143 279.19129082426133 275.70762052877143 Q 279.6889580093313 275.70762052877143 280.1866251944013 276.2052877138414 Q 280.6842923794713 276.7029548989114 281.67962674961126 276.7029548989114 Q 282.67496111975123 276.7029548989114 283.1726283048212 276.2052877138414 Q 283.6702954898912 275.70762052877143 284.1679626749612 275.20995334370144 Q 284.6656298600312 274.71228615863146 284.6656298600312 274.21461897356147 Q 284.6656298600312 273.7169517884915 284.6656298600312 272.7216174183515 Q 284.6656298600312 271.72628304821154 285.16329704510116 271.72628304821154 Q 285.66096423017115 271.72628304821154 285.66096423017115 270.7309486780716 Q 285.66096423017115 269.73561430793166 285.66096423017115 269.23794712286167 Q 285.66096423017115 268.7402799377917 285.66096423017115 268.2426127527217 Q 285.66096423017115 267.7449455676517 285.66096423017115 267.2472783825817 Q 285.66096423017115 266.74961119751174 285.66096423017115 266.25194401244175 Q 285.66096423017115 265.75427682737177 285.66096423017115 266.25194401244175 Q 285.66096423017115 266.74961119751174 286.15863141524113 267.2472783825817 Q 286.6562986003111 267.7449455676517 286.6562986003111 268.2426127527217 Q 286.6562986003111 268.7402799377917 286.6562986003111 269.23794712286167 Q 286.6562986003111 269.73561430793166 287.1539657853811 270.7309486780716 Q 287.6516329704511 271.72628304821154 288.1493001555211 272.2239502332815 Q 288.64696734059106 272.7216174183515 289.14463452566105 273.2192846034215 Q 289.64230171073103 273.7169517884915 290.139968895801 273.7169517884915 Q 290.637636080871 273.7169517884915 291.135303265941 274.21461897356147 Q 291.632970451011 274.71228615863146 292.13063763608096 274.71228615863146 Q 292.62830482115095 274.71228615863146 293.12597200622093 274.71228615863146 Q 293.6236391912909 274.71228615863146 294.1213063763609 274.71228615863146 Q 294.6189735614309 274.71228615863146 295.1166407465008 274.71228615863146 Q 295.6143079315708 274.71228615863146 296.1119751166408 274.71228615863146 Q 296.6096423017108 274.71228615863146 297.60497667185075 274.21461897356147 Q 298.6003110419907 273.7169517884915 299.0979782270607 273.2192846034215 Q 299.5956454121307 272.7216174183515 300.0933125972007 272.2239502332815 Q 300.59097978227067 271.72628304821154 301.08864696734065 271.72628304821154 Q 301.58631415241064 271.72628304821154 301.58631415241064 271.22861586314156 L 301.58631415241064 270.73094867807157" stroke-linecap="round" />
</g>
		<g transform="matrix(1.6 0 0 1.6 -5.57 -9.55)" id="c_Da8sSSLdcFrvzzYK8m-"  >
<path style="stroke: rgb(240,100,73); stroke-width: 3; stroke-dasharray: none; stroke-linecap: round; stroke-dashoffset: 0; stroke-linejoin: round; stroke-miterlimit: 10; fill: none; fill-rule: nonzero; opacity: 1;"   transform=" translate(-286.16, -263.26)" d="M 284.6626298600312 262.76527371695187 Q 284.6656298600312 262.76827371695185 284.6656298600312 263.26594090202184 Q 284.6656298600312 263.7636080870918 285.16329704510116 264.2612752721618 Q 285.66096423017115 264.7589424572318 286.15863141524113 264.7589424572318 Q 286.6562986003111 264.7589424572318 287.1539657853811 264.2612752721618 Q 287.6516329704511 263.7636080870918 287.6516329704511 263.26594090202184 Q 287.6516329704511 262.76827371695185 287.1539657853811 262.76827371695185 Q 286.6562986003111 262.76827371695185 286.6562986003111 262.27060653188187 Q 286.6562986003111 261.7729393468119 286.15863141524113 261.7729393468119 Q 285.66096423017115 261.7729393468119 285.66096423017115 262.27060653188187 Q 285.66096423017115 262.76827371695185 286.15863141524113 263.26594090202184 Q 286.6562986003111 263.7636080870918 287.1539657853811 263.7636080870918 Q 287.6516329704511 263.7636080870918 287.6516329704511 262.76827371695185 L 287.6516329704511 261.7699393468119" stroke-linecap="round" />
</g>
		<g transform="matrix(1.6 0 0 1.6 13.53 -0.79)" id="fqJqFZYQL1Pi2QcixfW62"  >
<path style="stroke: rgb(240,100,73); stroke-width: 3; stroke-dasharray: none; stroke-linecap: round; stroke-dashoffset: 0; stroke-linejoin: round; stroke-miterlimit: 10; fill: none; fill-rule: nonzero; opacity: 1;"   transform=" translate(-298.1, -268.74)" d="M 292.62830482115095 273.71995178849147 Q 292.62830482115095 273.7169517884915 292.62830482115095 273.2192846034215 Q 292.62830482115095 272.7216174183515 292.62830482115095 272.2239502332815 Q 292.62830482115095 271.72628304821154 292.62830482115095 270.7309486780716 Q 292.62830482115095 269.73561430793166 293.12597200622093 268.2426127527217 Q 293.6236391912909 266.74961119751174 293.6236391912909 266.25194401244175 Q 293.6236391912909 265.75427682737177 294.1213063763609 265.2566096423018 Q 294.6189735614309 264.7589424572318 295.1166407465008 264.7589424572318 Q 295.6143079315708 264.7589424572318 296.1119751166408 264.2612752721618 Q 296.6096423017108 263.7636080870918 297.10730948678076 263.7636080870918 Q 297.60497667185075 263.7636080870918 298.10264385692074 263.7636080870918 Q 298.6003110419907 263.7636080870918 299.5956454121307 263.7636080870918 Q 300.59097978227067 263.7636080870918 300.59097978227067 264.2612752721618 Q 300.59097978227067 264.7589424572318 301.08864696734065 264.7589424572318 Q 301.58631415241064 264.7589424572318 301.58631415241064 265.2566096423018 Q 301.58631415241064 265.75427682737177 302.0839813374806 265.75427682737177 Q 302.5816485225506 265.75427682737177 303.0793157076206 266.25194401244175 Q 303.5769828926906 266.74961119751174 303.5769828926906 267.2472783825817 Q 303.5769828926906 267.7449455676517 303.5769828926906 268.2426127527217 Q 303.5769828926906 268.7402799377917 303.5769828926906 269.23794712286167 Q 303.5769828926906 269.73561430793166 303.5769828926906 270.23328149300164 Q 303.5769828926906 270.73094867807157 303.5769828926906 271.72628304821154 L 303.5769828926906 272.7246174183515" stroke-linecap="round" />
</g>
		<g transform="matrix(1.6 0 0 1.6 12.74 0.8)" id="CapKDTS4-UumbaawbWOYf"  >
<path style="stroke: rgb(240,100,73); stroke-width: 3; stroke-dasharray: none; stroke-linecap: round; stroke-dashoffset: 0; stroke-linejoin: round; stroke-miterlimit: 10; fill: none; fill-rule: nonzero; opacity: 1;"   transform=" translate(-297.61, -269.74)" d="M 296.6096423017108 265.7512768273718 Q 296.6096423017108 265.75427682737177 296.6096423017108 266.25194401244175 Q 296.6096423017108 266.74961119751174 296.6096423017108 267.2472783825817 Q 296.6096423017108 267.7449455676517 297.10730948678076 268.7402799377917 Q 297.60497667185075 269.73561430793166 298.10264385692074 271.7262830482116 L 298.6033110419907 273.71995178849147" stroke-linecap="round" />
</g>
</g>
</g>
</g>
</g>
</svg>